Coordinates
version=1
nRows=17
nColumns=36
inDegrees=yes

Units are S.I. units (second, meters, Newtons, ...)
If the header above contains a line with 'inDegrees', this indicates whether rotational values are in degrees (yes) or radians (no).

endheader
time	pelvis_tilt	pelvis_list	pelvis_rotation	pelvis_tx	pelvis_ty	pelvis_tz	hip_flexion_r	hip_adduction_r	hip_rotation_r	knee_angle_r	knee_angle_r_beta	ankle_angle_r	subtalar_angle_r	mtp_angle_r	hip_flexion_l	hip_adduction_l	hip_rotation_l	knee_angle_l	knee_angle_l_beta	ankle_angle_l	subtalar_angle_l	mtp_angle_l	lumbar_extension	lumbar_bending	lumbar_rotation	arm_flex_r	arm_add_r	arm_rot_r	elbow_flex_r	pro_sup_r	arm_flex_l	arm_add_l	arm_rot_l	elbow_flex_l	pro_sup_l
      2.20000000	    -18.60084055	     -1.46593712	      4.29973045	      0.74976859	      0.83166468	     -0.03607139	     53.66734165	    -12.31468491	     -2.13071500	     52.13952236	      0.91000634	     26.45777210	     -2.46287338	     -7.49999987	     51.31028208	    -11.30515893	     -8.80657981	     51.83628606	      0.90471386	     20.38762345	     -8.57138944	     -7.49999987	    -10.07768809	     -2.03703897	      0.61377295	     56.25308770	      6.22015545	     75.58000716	    126.56057328	     91.06044348	     56.69857384	      4.73774832	     71.99220640	    124.92930084	     69.33748902
      2.21666670	    -18.86902794	     -1.89973639	      4.55230596	      0.74019239	      0.82176229	     -0.03731311	     55.23887081	    -12.61194295	     -2.88405409	     54.01829143	      0.94279704	     27.25158544	     -1.67605977	     -7.49999987	     53.50334053	    -11.67251562	     -8.03035600	     54.29556038	      0.94763630	     21.31130880	     -8.17735307	     -7.49999987	    -12.39838269	     -1.85181275	      0.28477214	     57.96977982	      5.86633529	     76.54972690	    126.19996598	     90.66575284	     58.10446323	      4.86659941	     73.27050201	    124.57200121	     69.85901039
      2.23333330	    -19.27138077	     -2.24892960	      4.81050699	      0.73103491	      0.81076001	     -0.04425318	     57.25537487	    -13.23662457	     -3.21100641	     55.98340410	      0.97709473	     27.54445809	     -1.14127086	     -7.49999987	     55.91842417	    -11.52203361	     -7.13928979	     56.64960962	      0.98872221	     21.99891153	     -8.24228279	     -7.49999987	    -14.69048047	     -1.44433451	      0.00025741	     59.67658047	      5.33296565	     77.16047317	    126.22895631	     92.19396439	     60.01238975	      5.34276216	     73.93610703	    123.61652401	     73.36177163
      2.25000000	    -19.72972599	     -2.72614467	      4.95389929	      0.73091392	      0.79344874	     -0.04342098	     59.43489638	    -13.69475753	     -3.59228007	     58.59178489	      1.02261956	     28.56144395	     -0.39233166	     -7.49999987	     58.66195927	    -11.57900543	     -5.90254155	     59.63253063	      1.04078400	     22.94111492	     -8.50542644	     -7.49999987	    -16.42740287	     -0.95107614	     -0.32674864	     61.33446855	      4.92840361	     77.93637368	    126.71434043	     89.17652389	     61.44574152	      5.64598067	     74.78889835	    123.42434592	     72.32314334
      2.26666670	    -20.41750165	     -3.00931970	      4.89447596	      0.72119647	      0.78562541	     -0.04379346	     61.94999651	    -14.05745742	     -3.56994039	     60.97531740	      1.06422005	     29.24193481	      0.11230787	     -7.49999987	     61.53035304	    -11.56601547	     -5.00979712	     62.33077779	      1.08787730	     23.68857986	     -8.33927204	     -7.49999987	    -18.11447060	     -0.68603624	     -0.50971643	     63.01306871	      4.83236683	     78.63591922	    127.00129830	     89.60573175	     62.82959939	      6.08926092	     75.91673743	    123.26120812	     72.88632574
      2.28333330	    -20.99613047	     -3.28384124	      4.78151004	      0.72170554	      0.78274771	     -0.04449941	     63.66200249	    -14.18550682	     -3.69306858	     62.47892017	      1.09046287	     29.66640246	      0.56073204	     -7.49999987	     63.49125064	    -11.59291639	     -4.22812874	     64.05281015	      1.11793243	     23.68041601	     -8.55282525	     -7.49999987	    -19.70217424	     -0.43289306	     -0.66722451	     64.19420983	      4.64457201	     79.34071750	    127.29956304	     89.98838031	     63.57077724	      6.16575395	     76.96634716	    123.17713182	     73.52423841
      2.30000000	    -21.74189366	     -3.34255525	      4.51788296	      0.71732994	      0.76960804	     -0.04794871	     65.82902000	    -14.31600792	     -3.33484714	     64.30941306	      1.12241100	     29.96313035	      0.98578484	     -7.49999987	     65.60829253	    -11.55191170	     -3.76744831	     65.97055003	      1.15140331	     24.04517143	     -8.67656117	     -7.49999987	    -20.99693228	     -0.21511114	     -0.98138362	     65.34869090	      4.64555332	     80.53911965	    127.70246405	     89.04593749	     64.00784483	      6.31854281	     77.93055812	    123.25044514	     73.66995867
      2.31666670	    -22.11583118	     -3.39957644	      4.35725531	      0.71216745	      0.76009684	     -0.04532664	     67.65449266	    -14.29730514	     -2.91349555	     66.18320911	      1.15511491	     30.40151950	      1.30272206	     -7.49999987	     67.49118983	    -11.54848985	     -3.26063518	     67.86586845	      1.18448285	     24.31214066	     -8.90683513	     -7.49999987	    -22.76688736	     -0.21474743	     -1.09688577	     66.41308529	      4.67053484	     80.51526832	    127.78631688	     87.94837325	     64.96562426	      6.01050777	     77.66052441	    123.20956813	     73.16606470
      2.33333330	    -22.99452269	     -3.54290684	      4.30940647	      0.70245716	      0.75414886	     -0.03978651	     70.07825941	    -13.99609355	     -2.43761535	     67.77203912	      1.18284522	     30.35403864	      1.08265847	     -7.49999987	     69.99708379	    -11.71354472	     -2.75784425	     69.50110577	      1.21302313	     24.49628784	     -8.16067585	     -7.49999987	    -24.04225492	     -0.22313537	     -1.14589385	     68.25495046	      5.01965883	     80.60213089	    127.78971969	     88.27700301	     66.39516055	      6.10443819	     78.21698482	    123.81496602	     73.65263672
      2.35000000	    -23.53401351	     -3.80587656	      4.47760256	      0.69735174	      0.74410270	     -0.03687201	     72.13744377	    -13.70517214	     -2.17281602	     69.51997342	      1.21335243	     30.44415072	      0.59286871	     -7.49999987	     72.42197516	    -11.95966816	     -2.16679933	     71.32052382	      1.24477796	     24.56079012	     -7.51746342	     -7.49999987	    -25.66537591	     -0.27837258	     -1.42760984	     69.74927963	      5.25265013	     80.83205179	    127.51792424	     88.62120520	     67.63790739	      5.85269684	     78.96841180	    124.13487113	     74.25150760
      2.36666670	    -24.30004110	     -3.85625793	      4.58267168	      0.69328218	      0.73357708	     -0.03978160	     74.52485333	    -13.61526829	     -1.59361419	     71.26677274	      1.24383983	     30.58853659	     -0.04029187	     -7.49999987	     74.85387957	    -11.97089748	     -1.93166992	     73.02861663	      1.27458981	     24.77539117	     -7.25180981	     -7.49999987	    -26.85772654	     -0.42601333	     -1.53419182	     71.59934929	      5.20803571	     80.80511387	    127.56765297	     88.86971697	     69.89685179	      5.54684667	     78.24709315	    124.54510508	     74.69634622
      2.38333330	    -25.09604934	     -3.84928021	      4.63901141	      0.68831391	      0.72399626	     -0.03657740	     76.86897432	    -13.46695183	     -0.95283014	     72.80494770	      1.27068605	     30.70540038	     -0.42112607	     -7.49999987	     77.30950820	    -11.90279503	     -1.49563273	     74.74776308	      1.30459457	     25.01699874	     -7.16352638	     -7.49999987	    -28.07473828	     -0.85156962	     -1.59264353	     73.54184447	      5.23053375	     81.02654125	    127.82386076	     89.36069474	     71.48553225	      5.34508151	     78.28399011	    125.03743855	     75.42840519
      2.40000000	    -25.83208713	     -3.83392979	      4.60411029	      0.68917822	      0.72262240	     -0.03559711	     78.36276861	    -13.27259991	     -0.57476694	     73.47839278	      1.28243988	     30.63699529	     -0.81520074	     -7.49999987	     78.86819428	    -11.96548948	     -1.37023462	     75.65213407	      1.32037883	     24.62279311	     -7.13032329	     -7.49999987	    -29.23888736	     -1.24387444	     -1.65023734	     75.05315402	      5.24438477	     81.38750952	    127.62947731	     89.72653346	     72.54641411	      5.10212844	     78.21321987	    125.24500611	     76.09745058
      2.41666670	    -26.44802588	     -3.71836026	      4.49519241	      0.68981330	      0.72171346	     -0.03578389	     79.15995420	    -13.08031942	     -0.32364367	     73.47487755	      1.28237853	     30.42157288	     -1.20023614	     -7.49999987	     79.67193837	    -12.02481505	     -1.47450172	     75.89497306	      1.32461717	     24.09903664	     -7.29956789	     -7.49999987	    -30.43184932	     -1.57317466	     -1.76500771	     76.40285553	      5.32153497	     82.21981521	    127.22397391	     94.67942366	     72.97373380	      4.57580730	     77.66180749	    125.68457520	     86.62803228
      2.43333330	    -27.09488756	     -3.75598779	      4.26028975	      0.68419353	      0.70253579	     -0.03195269	     80.91810619	    -12.88056958	     -0.10090589	     74.65331745	      1.30294619	     30.92096039	     -1.18419544	     -7.49999987	     81.53190671	    -12.38624253	     -1.12661041	     77.46462006	      1.35201267	     24.32834884	     -7.52402940	     -7.49999987	    -31.22190137	     -1.89105458	     -1.47856990	     77.83114935	      5.57340727	     81.68828579	    127.29915994	     95.25461261	     74.02927039	      4.57358421	     77.55817003	    125.92979355	     87.12197422
      2.45000000	    -27.99048475	     -3.96876411	      4.00990883	      0.68886528	      0.69383135	     -0.03423001	     82.69730753	    -12.68378821	      0.09394494	     75.96762935	      1.32588526	     31.51332165	     -1.32541495	     -7.49999987	     83.33539438	    -12.84769592	     -0.96127337	     78.86301563	      1.37641928	     24.72975982	     -7.56689145	     -7.49999987	    -31.38845228	     -1.71503824	     -1.15155943	     78.61822606	      5.87874020	     82.32671421	    126.96610935	     95.26606221	     74.61014597	      4.46165516	     77.71305261	    126.18570230	     87.44473361
      2.46666670	    -28.54761156	     -4.25380713	      3.91565694	      0.69244153	      0.68567969	     -0.03081961	     84.05096171	    -12.52950243	      0.15866166	     77.48534813	      1.35237445	     32.32033308	     -1.24230363	     -7.49999987	     84.82319029	    -13.52071049	     -0.71758233	     80.34250833	      1.40224130	     25.27214729	     -7.25869040	     -7.49999987	    -31.55837096	     -1.57614953	     -0.91082343	     79.19828049	      6.25894523	     83.65604357	    127.24936898	     95.42938948	     75.16035092	      4.30845750	     77.99449347	    126.52815427	     87.87251946
